<svg xmlns="http://www.w3.org/2000/svg" version="1.1" xmlns:xlink="http://www.w3.org/1999/xlink" xmlns:svgjs="http://svgjs.dev/svgjs" width="2000" height="1500" viewBox="0 0 2000 1500"><rect width="2000" height="1500" fill="#282634"></rect><g transform="matrix(0.75,0,0,0.75,249.090909090909,481.340873081522)"><svg viewBox="0 0 396 142" data-background-color="#282634" preserveAspectRatio="xMidYMid meet" height="717" width="2000" xmlns="http://www.w3.org/2000/svg" xmlns:xlink="http://www.w3.org/1999/xlink"><g id="tight-bounds" transform="matrix(1,0,0,1,0.2400000000000091,-0.05700414240095597)"><svg viewBox="0 0 395.52 142.11400828480194" height="142.11400828480194" width="395.52"><g><svg viewBox="0 0 650.9691536854741 233.89926097291664" height="142.11400828480194" width="395.52"><g transform="matrix(1,0,0,1,0,32.326164143145505)"><svg viewBox="0 0 395.52 169.24693268662563" height="169.24693268662563" width="395.52"><g id="textblocktransform"><svg viewBox="0 0 395.52 169.24693268662563" height="169.24693268662563" width="395.52" id="textblock"><g><svg viewBox="0 0 395.52 91.28370826580228" height="91.28370826580228" width="395.52"><g transform="matrix(1,0,0,1,0,0)"><svg width="395.52" viewBox="3.85 -35.35 154.24 35.6" height="91.28370826580228" data-palette-color="#ff4057"><path d="M7.9 0L3.85 0 3.85-33.7 7.9-33.7 7.9 0ZM26.55-33.7L13.7-16.65 27.25 0 22 0 8.7-16.65 21.55-33.7 26.55-33.7ZM32.3-35.35L36.2-35.35 36.2-20.95Q38.45-25.7 44.2-25.7L44.2-25.7Q47.85-25.7 50.07-23.45 52.3-21.2 52.3-17.35L52.3-17.35 52.3 0 48.35 0 48.35-16.4Q48.35-19.15 46.92-20.65 45.5-22.15 43.2-22.15L43.2-22.15Q40.4-22.15 38.3-20 36.2-17.85 36.2-13.85L36.2-13.85 36.2 0 32.3 0 32.3-35.35ZM61.85-14.3L75.45-14.3 75.45-15.3Q75.45-18.45 73.75-20.33 72.05-22.2 69.05-22.2L69.05-22.2Q66.2-22.2 64.2-20.15 62.2-18.1 61.85-14.3L61.85-14.3ZM77.8-5L77.8-5 77.8-1.3Q74.84 0.25 70.59 0.25L70.59 0.25Q64.84 0.25 61.32-3.28 57.8-6.8 57.8-12.6L57.8-12.6Q57.8-18.65 60.95-22.15 64.09-25.65 69.05-25.65L69.05-25.65Q73.8-25.65 76.59-22.6 79.4-19.55 79.4-13.95L79.4-13.95Q79.4-12.35 79.15-11L79.15-11 61.85-11Q62.3-7.25 64.7-5.25 67.09-3.25 71-3.25L71-3.25Q75.25-3.25 77.8-5ZM94.84-33.7L117.09-33.7 117.09-30.15 107.99-30.15 107.99 0 103.94 0 103.94-30.15 94.84-30.15 94.84-33.7ZM121.69-25.35L125.59-25.35 125.59-20.9Q127.59-25.6 132.49-25.6L132.49-25.6Q133.39-25.6 133.89-25.5L133.89-25.5 133.89-21.6Q132.84-21.95 131.74-21.95L131.74-21.95Q129.09-21.95 127.34-19.5 125.59-17.05 125.59-13.85L125.59-13.85 125.59 0 121.64 0 121.69-25.35ZM140.54-14.3L154.14-14.3 154.14-15.3Q154.14-18.45 152.44-20.33 150.74-22.2 147.74-22.2L147.74-22.2Q144.89-22.2 142.89-20.15 140.89-18.1 140.54-14.3L140.54-14.3ZM156.49-5L156.49-5 156.49-1.3Q153.54 0.25 149.29 0.25L149.29 0.25Q143.54 0.25 140.01-3.28 136.49-6.8 136.49-12.6L136.49-12.6Q136.49-18.65 139.64-22.15 142.79-25.65 147.74-25.65L147.74-25.65Q152.49-25.65 155.29-22.6 158.09-19.55 158.09-13.95L158.09-13.95Q158.09-12.35 157.84-11L157.84-11 140.54-11Q140.99-7.25 143.39-5.25 145.79-3.25 149.69-3.25L149.69-3.25Q153.94-3.25 156.49-5Z" opacity="1" transform="matrix(1,0,0,1,0,0)" fill="#ff4057" class="wordmark-text-0" data-fill-palette-color="primary" id="text-0"></path></svg></g></svg></g><g transform="matrix(1,0,0,1,179.21694914068246,112.83360097835981)"><svg viewBox="0 0 216.30305085931752 56.41333170826581" height="56.41333170826581" width="216.30305085931752"><g transform="matrix(1,0,0,1,0,0)"><svg width="216.30305085931752" viewBox="4.5 -35.6 138.79 36.2" height="56.41333170826581" data-palette-color="#dcdcdc"><path d="M8.25 0L4.5 0 4.5-32.8 9.5-32.8 15.8-15.3Q16.4-13.6 16.98-11.88 17.55-10.15 18.15-8.45L18.15-8.45 18.35-8.45Q18.95-10.15 19.48-11.88 20-13.6 20.6-15.3L20.6-15.3 26.8-32.8 31.85-32.8 31.85 0 27.95 0 27.95-18.05Q27.95-20.25 28.15-22.9 28.35-25.55 28.5-27.75L28.5-27.75 28.3-27.75 25.7-20.3 19.5-3.3 16.75-3.3 10.55-20.3 7.95-27.75 7.75-27.75Q7.9-25.55 8.08-22.9 8.25-20.25 8.25-18.05L8.25-18.05 8.25 0ZM46.05 0.6L46.05 0.6Q43 0.6 40.97-1.2 38.95-3 38.95-6.3L38.95-6.3Q38.95-10.3 42.5-12.43 46.05-14.55 53.85-15.4L53.85-15.4Q53.85-16.55 53.62-17.65 53.4-18.75 52.85-19.6 52.3-20.45 51.32-20.98 50.35-21.5 48.85-21.5L48.85-21.5Q46.75-21.5 44.9-20.7 43.05-19.9 41.6-18.9L41.6-18.9 40-21.75Q41.7-22.85 44.15-23.88 46.6-24.9 49.55-24.9L49.55-24.9Q54-24.9 56-22.18 58-19.45 58-14.9L58-14.9 58 0 54.6 0 54.25-2.9 54.1-2.9Q52.35-1.45 50.35-0.43 48.35 0.6 46.05 0.6ZM47.25-2.7L47.25-2.7Q49-2.7 50.55-3.53 52.1-4.35 53.85-5.95L53.85-5.95 53.85-12.7Q50.8-12.3 48.72-11.75 46.65-11.2 45.37-10.45 44.1-9.7 43.52-8.72 42.95-7.75 42.95-6.6L42.95-6.6Q42.95-4.5 44.2-3.6 45.45-2.7 47.25-2.7ZM69.75 0L65.65 0 65.65-24.3 69.05-24.3 69.4-19.9 69.55-19.9Q70.8-22.2 72.57-23.55 74.35-24.9 76.45-24.9L76.45-24.9Q77.9-24.9 79.05-24.4L79.05-24.4 78.25-20.8Q77.65-21 77.15-21.1 76.65-21.2 75.9-21.2L75.9-21.2Q74.35-21.2 72.67-19.95 71-18.7 69.75-15.6L69.75-15.6 69.75 0ZM87.04 0L82.99 0 82.99-35.6 87.04-35.6 87.04-11.5 87.19-11.5 97.54-24.3 102.09-24.3 93.94-14.55 103.19 0 98.69 0 91.59-11.7 87.04-6.4 87.04 0ZM116.69 0.6L116.69 0.6Q114.24 0.6 112.12-0.28 109.99-1.15 108.42-2.78 106.84-4.4 105.94-6.75 105.04-9.1 105.04-12.1L105.04-12.1Q105.04-15.1 105.97-17.48 106.89-19.85 108.42-21.5 109.94-23.15 111.89-24.03 113.84-24.9 115.94-24.9L115.94-24.9Q118.24-24.9 120.07-24.1 121.89-23.3 123.12-21.8 124.34-20.3 124.99-18.2 125.64-16.1 125.64-13.5L125.64-13.5Q125.64-12.85 125.62-12.23 125.59-11.6 125.49-11.15L125.49-11.15 109.09-11.15Q109.34-7.25 111.52-4.98 113.69-2.7 117.19-2.7L117.19-2.7Q118.94-2.7 120.42-3.23 121.89-3.75 123.24-4.6L123.24-4.6 124.69-1.9Q123.09-0.9 121.14-0.15 119.19 0.6 116.69 0.6ZM109.04-14.1L109.04-14.1 122.04-14.1Q122.04-17.8 120.47-19.73 118.89-21.65 116.04-21.65L116.04-21.65Q114.74-21.65 113.57-21.15 112.39-20.65 111.44-19.68 110.49-18.7 109.87-17.3 109.24-15.9 109.04-14.1ZM138.79 0.6L138.79 0.6Q136.84 0.6 135.51 0 134.19-0.6 133.36-1.65 132.54-2.7 132.19-4.2 131.84-5.7 131.84-7.5L131.84-7.5 131.84-20.95 128.24-20.95 128.24-24.05 132.04-24.3 132.54-31.1 135.99-31.1 135.99-24.3 142.54-24.3 142.54-20.95 135.99-20.95 135.99-7.45Q135.99-5.2 136.81-3.98 137.64-2.75 139.74-2.75L139.74-2.75Q140.39-2.75 141.14-2.95 141.89-3.15 142.49-3.4L142.49-3.4 143.29-0.3Q142.29 0.05 141.11 0.33 139.94 0.6 138.79 0.6Z" opacity="1" transform="matrix(1,0,0,1,0,0)" fill="#dcdcdc" class="slogan-text-1" data-fill-palette-color="secondary" id="text-1"></path></svg></g></svg></g></svg></g></svg></g><g transform="matrix(1,0,0,1,417.06989271255753,0)"><svg viewBox="0 0 233.89926097291664 233.89926097291664" height="233.89926097291664" width="233.89926097291664"><g data-palette-color="#dcdcdc"><rect width="63.932464665930546" height="233.89926097291664" fill="#dcdcdc" stroke="transparent" data-fill-palette-color="accent" x="0" fill-opacity="1"></rect><rect width="63.932464665930546" height="233.89926097291664" fill="#dcdcdc" stroke="transparent" data-fill-palette-color="accent" x="77.96642032430555" fill-opacity="0.75"></rect><rect width="63.932464665930546" height="233.89926097291664" fill="#dcdcdc" stroke="transparent" data-fill-palette-color="accent" x="155.9328406486111" fill-opacity="0.5"></rect></g></svg></g></svg></g><defs></defs></svg><rect width="395.52" height="142.11400828480194" fill="none" stroke="none" visibility="hidden"></rect></g></svg></g></svg>